# xmcd CD database file
#
# Track frame offsets:
#	150
#	22330
#	49056
#	71204
#	93950
#	115068
#	135591
#	158851
#	179569
#	201101
#	221504
#	244537
#	267328
#	286096
#	308845
#	328575
#
# Disc length: 4760 seconds
#
# Revision: 0
# Processed by: cddbd v1.5.2PL0 Copyright (c) Steve Scherf et al.
# Submitted via: CDex 1.51
#
DISCID=ec129610
DTITLE=Danny Daniel - ESENCIAL DE LA SALSA CD1
DYEAR=2009
DGENRE=Salsa
TTITLE0=Vete ya (Vuelvo a empezar)
TTITLE1=Gotas de lluvia
TTITLE2=La persona ideal
TTITLE3=Color americano
TTITLE4=Amiga (New version)
TTITLE5=Creo en ti
TTITLE6=Si supieras
TTITLE7=Regalame una noche
TTITLE8=La rebelión
TTITLE9=Camino equivocado
TTITLE10=Tu me estas volviendo loco
TTITLE11=Veneno
TTITLE12=No soy un juego
TTITLE13=Y que me pasa
TTITLE14=Estoy enamorado
TTITLE15=Quiero morir en tu piel
EXTD=YEAR: 2009
EXTT0=
EXTT1=
EXTT2=
EXTT3=
EXTT4=
EXTT5=
EXTT6=
EXTT7=
EXTT8=
EXTT9=
EXTT10=
EXTT11=
EXTT12=
EXTT13=
EXTT14=
EXTT15=
PLAYORDER=
